:FULLY-SPECIFIED
:FORCE-ALL-JOINTS-BE-3DOF
:DEGREES
136
root 7.80382 16.5593 -26.284 -10.1571 9.43695 5.03947
lfemur -5.94372 13.052 -21.4713
ltibia 35.0714 -0 0
lfoot -17.8178 -9.70864 0.0182217
ltoes 26.3474 -0 0
rfemur -98.378 -27.0004 57.8552
rtibia 84.4907 -0 0
rfoot 2.50731 19.543 0.195455
rtoes -31.6485 0 0
lowerback 16.679 -2.95191 -8.81095
upperback 5.47543 -5.34752 -1.67004
thorax -2.79769 -2.68582 4.14695
lowerneck -12.5439 -0.791714 -0.0397436
upperneck 0.804162 -1.19238 3.08464
head 2.46801 -0.484094 0.937448
lclavicle -4.36332e-014 -1.90833e-014 0
lhumerus -40.9502 -21.7534 90.6656
lradius 52.7709 -0 0
lwrist 15.7999 0 0
lhand 10.2385 6.92401 0.0975902
lfingers 7.12502 -0 0
lthumb 35.3341 33.2419 0.0347144
rclavicle -4.36332e-014 -1.90833e-014 0
rhumerus -44.2102 -23.1053 -57.9876
rradius 79.5639 -0 0
rwrist -30.3928 0 0
rhand -12.3648 -32.5662 3.41099
rfingers 7.12502 -0 0
rthumb 16.1278 -12.1291 -12.2232
137
root 7.76055 16.5431 -26.2789 -9.78343 10.3863 4.82704
lfemur -6.68886 13.4615 -21.1639
ltibia 35.5121 -0 0
lfoot -18.0266 -10.1253 0.0212591
ltoes 25.7908 -0 0
rfemur -98.4209 -27.1615 56.5986
rtibia 88.1409 -0 0
rfoot 6.30669 19.7897 0.228369
rtoes -28.5131 0 0
lowerback 16.5512 -3.22489 -8.74304
upperback 5.36191 -5.68902 -1.72142
thorax -2.82118 -2.84884 4.10411
lowerneck -12.446 -0.931253 -0.166555
upperneck 0.718419 -1.36631 3.31176
head 2.42977 -0.565174 1.02364
lclavicle -4.36332e-014 -1.90833e-014 0
lhumerus -40.4192 -22.7218 90.7752
lradius 52.1863 -0 0
lwrist 15.3047 0 0
lhand 11.2981 7.36393 0.11387
lfingers 7.12502 -0 0
lthumb 36.3343 33.4077 0.0405044
rclavicle -4.36332e-014 -1.90833e-014 0
rhumerus -45.0609 -23.2128 -58.8229
rradius 80.6282 -0 0
rwrist -29.1136 0 0
rhand -16.6183 -36.4407 3.99322
rfingers 7.12502 -0 0
rthumb 11.3426 1.08432 -14.5843
138
root 7.71728 16.5269 -26.2739 -9.41219 11.3369 4.62025
lfemur -7.43303 13.8748 -20.8615
ltibia 35.9528 -0 0
lfoot -18.2354 -10.542 0.0227778
ltoes 25.2342 -0 0
rfemur -98.4599 -27.3235 55.3403
rtibia 91.791 -0 0
rfoot 10.1062 20.0381 0.244862
rtoes -25.3776 0 0
lowerback 16.4231 -3.49771 -8.67451
upperback 5.24863 -6.03062 -1.77215
thorax -2.84455 -3.01188 4.06133
lowerneck -12.3479 -1.07058 -0.29361
upperneck 0.63198 -1.53989 3.53916
head 2.3914 -0.646197 1.10989
lclavicle -4.36332e-014 -1.90833e-014 0
lhumerus -39.8864 -23.6912 90.8758
lradius 51.6017 -0 0
lwrist 14.8096 0 0
lhand 12.3578 7.80406 0.122012
lfingers 7.12502 -0 0
lthumb 37.3346 33.5735 0.0433998
rclavicle -4.36332e-014 -1.90833e-014 0
rhumerus -45.9105 -23.3316 -59.6572
rradius 81.6925 -0 0
rwrist -27.8344 0 0
rhand -20.9037 -40.35 4.28589
rfingers 7.12502 -0 0
rthumb 6.08459 14.5668 -15.8064
139
root 7.674 16.5108 -26.2688 -9.04317 12.2889 4.41906
lfemur -8.1763 14.292 -20.5641
ltibia 36.3935 -0 0
lfoot -18.4443 -10.9587 0.0227778
ltoes 24.6776 -0 0
rfemur -98.4949 -27.4862 54.0803
rtibia 95.4412 -0 0
rfoot 13.9057 20.287 0.244862
rtoes -22.2421 0 0
lowerback 16.2946 -3.77038 -8.60534
upperback 5.13557 -6.37233 -1.82224
thorax -2.8678 -3.17494 4.01861
lowerneck -12.2494 -1.20968 -0.42091
upperneck 0.544846 -1.71313 3.76684
head 2.3529 -0.727162 1.19619
lclavicle -4.36332e-014 -1.90833e-014 0
lhumerus -39.3514 -24.6613 90.9673
lradius 51.0171 -0 0
lwrist 14.3144 0 0
lhand 13.4176 8.24428 0.122012
lfingers 7.12502 -0 0
lthumb 38.3348 33.7394 0.0433998
rclavicle -4.36332e-014 -1.90833e-014 0
rhumerus -46.7589 -23.4618 -60.4902
rradius 82.7569 -0 0
rwrist -26.5553 0 0
rhand -25.2001 -44.271 4.28589
rfingers 7.12502 -0 0
rthumb 0.660308 28.1485 -15.8064
140
root 7.63073 16.4946 -26.2638 -8.6762 13.2421 4.2234
lfemur -8.91872 14.7128 -20.2717
ltibia 36.8342 -0 0
lfoot -18.6531 -11.3754 0.0212591
ltoes 24.121 -0 0
rfemur -98.526 -27.6495 52.8186
rtibia 99.0913 -0 0
rfoot 17.7052 20.5354 0.228369
rtoes -19.1067 0 0
lowerback 16.1657 -4.04289 -8.53553
upperback 5.02275 -6.71413 -1.87168
thorax -2.89093 -3.33801 3.97595
lowerneck -12.1507 -1.34857 -0.548456
upperneck 0.457015 -1.88602 3.9948
head 2.31429 -0.808068 1.28255
lclavicle -4.36332e-014 -1.90833e-014 0
lhumerus -38.8139 -25.6322 91.0494
lradius 50.4325 -0 0
lwrist 13.8193 0 0
lhand 14.4773 8.68441 0.11387
lfingers 7.12502 -0 0
lthumb 39.3351 33.9052 0.0405044
rclavicle -4.36332e-014 -1.90833e-014 0
rhumerus -47.606 -23.6033 -61.3219
rradius 83.8212 -0 0
rwrist -25.2761 0 0
rhand -29.4855 -48.1803 3.99322
rfingers 7.12502 -0 0
rthumb -4.5977 41.631 -14.5843
141
root 7.58746 16.4784 -26.2587 -8.31109 14.1965 4.03325
lfemur -9.66037 15.1373 -19.9845
ltibia 37.2749 -0 0
lfoot -18.8619 -11.7921 0.0182217
ltoes 23.5644 -0 0
rfemur -98.553 -27.8133 51.555
rtibia 102.742 -0 0
rfoot 21.5046 20.7821 0.195455
rtoes -15.9712 0 0
lowerback 16.0365 -4.31524 -8.46509
upperback 4.91013 -7.05602 -1.92048
thorax -2.91394 -3.5011 3.93335
lowerneck -12.0516 -1.48723 -0.676249
upperneck 0.368488 -2.05856 4.22305
head 2.27555 -0.888917 1.36896
lclavicle -4.36332e-014 -1.90833e-014 0
lhumerus -38.2734 -26.6038 91.122
lradius 49.8479 -0 0
lwrist 13.3241 0 0
lhand 15.537 9.12433 0.0975902
lfingers 7.12502 -0 0
lthumb 40.3353 34.071 0.0347144
rclavicle -4.36332e-014 -1.90833e-014 0
rhumerus -48.4517 -23.756 -62.1522
rradius 84.8855 -0 0
rwrist -23.9969 0 0
rhand -33.739 -52.0548 3.41099
rfingers 7.12502 -0 0
rthumb -9.38294 54.8444 -12.2232
142
root 7.54419 16.4622 -26.2537 -7.94767 15.1521 3.84858
lfemur -10.4013 15.5654 -19.7023
ltibia 37.7155 -0 0
lfoot -19.0707 -12.2088 0.0136658
ltoes 23.0077 -0 0
rfemur -98.5759 -27.9777 50.2897
rtibia 106.392 -0 0
rfoot 25.3038 21.0261 0.146265
rtoes -12.8357 0 0
lowerback 15.9068 -4.58744 -8.394
upperback 4.79773 -7.39801 -1.96863
thorax -2.93684 -3.66421 3.89081
lowerneck -11.9522 -1.62567 -0.80429
upperneck 0.279263 -2.23075 4.4516
head 2.23669 -0.969707 1.45544
lclavicle -4.36332e-014 -1.90833e-014 0
lhumerus -37.7296 -27.5759 91.1849
lradius 49.2634 -0 0
lwrist 12.829 0 0
lhand 16.5965 9.56386 0.0731779
lfingers 7.12502 -0 0
lthumb 41.3356 34.2366 0.0260317
rclavicle -4.36332e-014 -1.90833e-014 0
rhumerus -49.296 -23.92 -62.9809
rradius 85.9498 -0 0
rwrist -22.7177 0 0
rhand -37.9406 -55.873 2.54521
rfingers 7.12502 -0 0
rthumb -13.4544 67.6936 -8.87324
143
root 7.50091 16.4461 -26.2486 -7.58576 16.1088 3.66935
lfemur -11.1416 15.9969 -19.4254
ltibia 38.1562 -0 0
lfoot -19.2794 -12.6255 0.00759177
ltoes 22.4511 -0 0
rfemur -98.5948 -28.1425 49.0224
rtibia 110.042 -0 0
rfoot 29.1028 21.2663 0.0810178
rtoes -9.70028 0 0
lowerback 15.7768 -4.85947 -8.32227
upperback 4.68552 -7.7401 -2.01615
thorax -2.95962 -3.82734 3.84832
lowerneck -11.8524 -1.76389 -0.93258
upperneck 0.189341 -2.40258 4.68044
head 2.19771 -1.05044 1.54196
lclavicle -4.36332e-014 -1.90833e-014 0
lhumerus -37.1821 -28.5485 91.2379
lradius 48.6788 -0 0
lwrist 12.3338 0 0
lhand 17.6557 10.0029 0.0406435
lfingers 7.12502 -0 0
lthumb 42.3357 34.4021 0.014459
rclavicle -4.36332e-014 -1.90833e-014 0
rhumerus -50.1387 -24.095 -63.808
rradius 87.0142 -0 0
rwrist -21.4386 0 0
rhand -42.0728 -59.6153 1.40457
rfingers 7.12502 -0 0
rthumb -16.6478 80.1753 -4.72736
144
root 7.45764 16.4299 -26.2436 -7.22517 17.0665 3.49555
lfemur -11.8814 16.4318 -19.1537
ltibia 38.5969 0 0
lfoot -19.4881 -13.0421 0
ltoes 21.8945 0 0
rfemur -98.6095 -28.3076 47.7533
rtibia 113.692 0 0
rfoot 32.9014 21.5016 0
rtoes -6.56482 0 0
lowerback 15.6464 -5.13134 -8.24989
upperback 4.57351 -8.08227 -2.06303
thorax -2.98228 -3.99048 3.80589
lowerneck -11.7524 -1.90189 -1.06112
upperneck 0.0987205 -2.57405 4.90958
head 2.1586 -1.13111 1.62855
lclavicle -4.36332e-014 -1.90833e-014 0
lhumerus -36.6304 -29.5215 91.2807
lradius 48.0942 0 0
lwrist 11.8387 0 0
lhand 18.7147 10.4412 0
lfingers 7.12502 0 0
lthumb 43.3359 34.5673 0
rclavicle -4.36332e-014 -1.90833e-014 0
rhumerus -50.9797 -24.2812 -64.6333
rradius 88.0785 0 0
rwrist -20.1594 0 0
rhand -46.1207 -63.2647 0
rfingers 7.12502 0 0
rthumb -18.8617 -267.63 0
